<svg fill="none" height="1024" viewBox="0 0 1024 1024" width="1024" xmlns="http://www.w3.org/2000/svg">
  <title>Pico icon</title>
  <style xmlns="http://www.w3.org/2000/svg">
    .big-sparkle { fill: #FF9500 }
    .small-sparkles { fill: #FFBF00 }
    @media (prefers-color-scheme: dark) {
      .big-sparkle { fill: #FFBF00 }
      .small-sparkles { fill: #FF9500 }
    }
  </style>
  <path class="big-sparkle" d="m777.387 609.18c-5.427 2.039-9.716 6.229-11.803 11.531l-80.287 203.948c-6.755 17.159-31.604 17.16-38.359 0l-80.287-203.948c-2.087-5.302-6.376-9.492-11.803-11.531l-208.746-78.442c-17.564-6.599-17.564-30.877 0-37.476l208.746-78.442c5.427-2.039 9.716-6.229 11.803-11.531l80.287-203.948c6.755-17.159 31.604-17.159 38.359 0l80.287 203.948c2.087 5.302 6.376 9.492 11.803 11.531l208.747 78.442c17.566 6.599 17.566 30.877 0 37.477z"/>
  <g class="small-sparkles">
    <path d="m192.121 342.82c-6.756 17.16-31.604 17.16-38.359 0l-28.915-73.449c-2.087-5.302-6.376-9.492-11.803-11.532l-75.1777-28.25c-17.5631-6.599-17.5631-30.877 0-37.477l75.1777-28.249c5.427-2.04 9.716-6.23 11.803-11.532l28.915-73.4498c6.755-17.1594 31.603-17.1593 38.359.0001l28.914 73.4497c2.087 5.302 6.376 9.492 11.803 11.532l75.178 28.249c17.563 6.6 17.563 30.878 0 37.477l-75.178 28.25c-5.427 2.04-9.716 6.23-11.803 11.532z"/>
    <path d="m356.132 860.138c-5.427 2.039-9.715 6.229-11.803 11.531l-28.914 73.45c-6.755 17.159-31.604 17.159-38.359 0l-28.915-73.45c-2.087-5.302-6.376-9.492-11.802-11.531l-75.179-28.25c-17.563-6.6-17.563-30.877 0-37.477l75.179-28.25c5.426-2.039 9.715-6.229 11.802-11.531l28.915-73.45c6.755-17.16 31.604-17.16 38.359 0l28.914 73.45c2.088 5.302 6.376 9.492 11.803 11.531l75.178 28.25c17.563 6.6 17.563 30.877 0 37.477z"/>
  </g>
</svg>