<svg viewBox="0 0 1024 1024" fill="none" xmlns="http://www.w3.org/2000/svg">
  <style xmlns="http://www.w3.org/2000/svg">
    .pico-logo-big-sparkle { fill: #FF9500 }
    .pico-logo-small-sparkles { fill: #FFBF00 }
    .pico-logo-monogram { fill: #2A3140 }
    @media (prefers-color-scheme: dark) {
    .pico-logo-big-sparkle { fill: #FFBF00 }
    .pico-logo-small-sparkles { fill: #FF9500 }
    .pico-logo-monogram { fill: #FFFFFF }
    }
  </style>
  <path class="pico-logo-big-sparkle" d="M894.937 318.969a11.6836 11.6836 0 0 0-6.712 6.71L842.569 444.37c-3.841 9.986-17.971 9.986-21.813 0L775.1 325.679a11.682 11.682 0 0 0-6.711-6.71l-118.706-45.651c-9.988-3.84-9.988-17.969 0-21.81l118.706-45.65a11.6836 11.6836 0 0 0 6.711-6.711l45.656-118.6905c3.842-9.9861 17.972-9.9861 21.813.0001l45.656 118.6904a11.6853 11.6853 0 0 0 6.712 6.711l118.703 45.65c9.99 3.841 9.99 17.97 0 21.81l-118.703 45.651Z" />
  <path class="pico-logo-small-sparkles" d="M562.12 163.957c-3.841 9.986-17.972 9.986-21.813 0l-16.443-42.746a11.682 11.682 0 0 0-6.711-6.71l-42.751-16.4409c-9.987-3.8408-9.987-17.9694 0-21.8102l42.751-16.4405a11.6838 11.6838 0 0 0 6.711-6.7108l16.443-42.7454c3.841-9.9861 17.972-9.986 21.813.0001l16.443 42.7453a11.6838 11.6838 0 0 0 6.711 6.7108l42.751 16.4405c9.988 3.8408 9.988 17.9694 0 21.8102l-42.751 16.4409a11.682 11.682 0 0 0-6.711 6.71l-16.443 42.746Zm93.267 301.06a11.6853 11.6853 0 0 0-6.712 6.711l-16.443 42.745c-3.841 9.986-17.971 9.986-21.813 0l-16.442-42.745a11.6853 11.6853 0 0 0-6.712-6.711l-42.751-16.44c-9.987-3.841-9.987-17.97 0-21.811l42.751-16.44a11.6853 11.6853 0 0 0 6.712-6.711l16.442-42.745c3.842-9.986 17.972-9.986 21.813 0l16.443 42.745a11.6853 11.6853 0 0 0 6.712 6.711l42.75 16.44c9.988 3.841 9.988 17.97 0 21.811l-42.75 16.44Z" />
  <path class="pico-logo-monogram" d="M2 940.079V348.427h123.73l7.575 77.76v513.892H2Zm250.827-158.901c-34.79 0-63.969-8.734-87.537-26.202-23.568-18.031-41.243-43.669-53.027-76.915-11.784-33.245-17.6759-72.688-17.6759-118.33 0-46.205 5.8919-85.649 17.6759-118.331 11.784-33.245 29.459-58.601 53.027-76.069 23.568-18.031 52.747-27.047 87.537-27.047 39.279 0 73.228 9.016 101.846 27.047 28.618 17.468 50.502 42.824 65.653 76.069 15.15 32.682 22.726 72.126 22.726 118.331 0 45.642-7.576 85.085-22.726 118.33-15.151 33.246-37.035 58.884-65.653 76.915-28.618 17.468-62.567 26.202-101.846 26.202Zm-33.668-121.711c16.834 0 31.704-4.227 44.61-12.679 12.906-8.452 23.287-20.003 31.143-34.654 7.856-15.214 11.784-32.681 11.784-52.403s-3.647-36.908-10.942-51.558c-7.295-15.214-17.676-27.047-31.143-35.499-12.906-8.453-27.776-12.679-44.61-12.679s-31.985 4.226-45.452 12.679c-12.906 8.452-23.007 20.285-30.301 35.499-7.295 15.214-10.943 32.4-10.943 51.558 0 19.722 3.648 37.189 10.943 52.403 7.294 14.651 17.395 26.202 30.301 34.654 12.906 8.452 27.776 12.679 44.61 12.679Z" />
</svg>