<svg fill="none" height="960" viewBox="0 0 1020 960" width="1020" xmlns="http://www.w3.org/2000/svg"><path d="m768.296 576.809c-5.281 2.031-9.455 6.205-11.487 11.487l-78.142 203.17c-6.575 17.094-30.759 17.094-37.334 0l-78.142-203.17c-2.032-5.282-6.206-9.456-11.487-11.487l-203.17-78.142c-17.094-6.575-17.094-30.76 0-37.334l203.17-78.142c5.281-2.032 9.455-6.206 11.487-11.488l78.142-203.169c6.575-17.094 30.759-17.094 37.334 0l78.142 203.169c2.032 5.282 6.206 9.456 11.487 11.488l203.17 78.142c17.094 6.574 17.094 30.759 0 37.334z" fill="#ff9500"/><g fill="#ffbf00"><path d="m198.667 311.466c-6.575 17.094-30.759 17.094-37.334 0l-28.142-73.17c-2.032-5.281-6.206-9.455-11.487-11.487l-73.1699-28.142c-17.0939-6.575-17.094-30.759-.0001-37.334l73.17-28.142c5.281-2.032 9.455-6.206 11.487-11.487l28.142-73.1701c6.575-17.0939 30.759-17.0938 37.334.0001l28.142 73.17c2.032 5.281 6.206 9.455 11.487 11.487l73.17 28.142c17.094 6.575 17.094 30.759 0 37.334l-73.17 28.142c-5.281 2.031-9.455 6.206-11.487 11.487z"/><path d="m358.296 826.809c-5.281 2.031-9.455 6.205-11.487 11.487l-28.142 73.17c-6.575 17.094-30.759 17.094-37.334 0l-28.142-73.17c-2.032-5.282-6.206-9.456-11.487-11.487l-73.17-28.142c-17.094-6.575-17.094-30.76 0-37.334l73.17-28.142c5.281-2.032 9.455-6.206 11.487-11.488l28.142-73.169c6.575-17.094 30.759-17.094 37.334 0l28.142 73.169c2.032 5.282 6.206 9.456 11.487 11.488l73.17 28.142c17.094 6.574 17.094 30.759 0 37.334z"/></g></svg>